<svg width="131" height="40" viewBox="0 0 131 40" fill="none" xmlns="http://www.w3.org/2000/svg">
  <circle cx="17.5" cy="19.5" r="13.5" fill="url(#paint0_linear_425_166)"/>
  <path d="M10.4286 15.1351C14.6075 14.0893 18.7766 13.046 22.9559 12C23.1752 12.848 23.3923 13.6879 23.6118 14.5371C20.3486 15.3537 17.0907 16.1692 13.8329 16.9846C13.8336 16.9898 13.8342 16.9949 13.835 17.0001H23.9228C23.9245 17.037 23.9274 17.0668 23.9274 17.0969C23.9276 19.2878 23.9287 21.4789 23.927 23.6698C23.926 24.8933 22.9172 25.9325 21.6794 25.9896C21.5589 25.9952 21.4381 25.9986 21.3174 25.9986C18.6832 25.9992 16.049 25.9995 13.415 25.9986C12.7566 25.9984 12.1814 25.7789 11.7114 25.3255C11.2836 24.9126 11.0414 24.4063 11.0043 23.8126C10.9969 23.6941 10.9946 23.5752 10.9946 23.4565C10.994 21.5189 10.9931 19.5814 10.9959 17.644C10.9963 17.4423 10.9738 17.2479 10.9213 17.0522C10.7567 16.4395 10.6021 15.8244 10.4438 15.21C10.4385 15.1894 10.4353 15.1682 10.4286 15.1351ZM11.6049 19.6276V19.7292C11.6049 21.0375 11.6047 22.3459 11.6057 23.6541C11.6057 23.7256 11.612 23.7977 11.6228 23.8685C11.7616 24.7735 12.5004 25.3983 13.4305 25.3983C16.0963 25.3983 18.7622 25.3983 21.4281 25.398C21.5011 25.398 21.5742 25.3946 21.6469 25.3893C22.5983 25.3211 23.353 24.6618 23.425 23.6992C23.4301 23.6603 23.432 23.6203 23.432 23.5803C23.4317 22.2807 23.4327 20.981 23.4312 19.6814C23.4312 19.6043 23.4278 19.5273 23.4225 19.4504C23.365 18.9287 22.8683 18.637 22.3355 18.6505C19.4846 18.6505 16.6336 18.6505 13.7827 18.6505C12.5657 18.6505 11.3487 18.6505 10.1316 18.6505C10.0629 18.6505 9.99453 18.657 9.92639 18.6687C9.17578 18.7753 8.858 19.7293 9.33882 20.2759C9.50497 20.4916 9.88059 20.5903 10.1244 20.4304C10.4404 20.2044 10.6712 19.9267 10.9004 19.6478C10.944 19.5915 10.9936 19.5679 11.0454 19.5822C11.1654 19.6076 11.2862 19.6276 11.6049 19.6276Z" fill="#fff"/>
  <text x="35" y="27" fill="#F89E00" font-family="Verdana" font-size="20px" font-weight="bold">MovieFlix</text>
  <defs>
    <linearGradient id="paint0_linear_425_166" x1="24.9286" y1="6.5" x2="6.57143" y2="30.4286" gradientUnits="userSpaceOnUse">
      <stop stop-color="#DA2F68"/>
      <stop offset="1"  stop-color="#F89E00"/>
    </linearGradient>
  </defs>
</svg>
